# xmcd CD database file
#
# Track frame offsets:
#	150
#	6397
#	32225
#	54707
#	76682
#	85317
#	108915
#	126565
#	143867
#	164182
#	169895
#	193242
#	213510
#	241867
#	264080
#	288120
#
# Disc length: 4005 seconds
#
# Revision: 0
# Processed by: cddbd v1.5.2PL0 Copyright (c) Steve Scherf et al.
# Submitted via: CDex 1.70beta2
#
DISCID=e70fa310
DTITLE=Christian Prommers Drumlesson - Drum Lesson Ⅰ
DYEAR=2008
DGENRE=Jazz
TTITLE0=Drum Lesson Ⅰ
TTITLE1=Can You Feel It 
TTITLE2=Rej 
TTITLE3=Plastic Dreams
TTITLE4=Drum Lesson II
TTITLE5=Trans Europa Express
TTITLE6=Firecracker
TTITLE7=Elle 
TTITLE8=Claire 
TTITLE9=Drum Lesson III
TTITLE10=Higher State Of Consciousness
TTITLE11=Strings Of Life
TTITLE12=Beau Mot Plage 
TTITLE13=Hi-tech Jazz
TTITLE14=Nervous Track
TTITLE15=Drum Lesson IV
EXTD=YEAR: 2008
EXTT0=
EXTT1=
EXTT2=
EXTT3=
EXTT4=
EXTT5=
EXTT6=
EXTT7=
EXTT8=
EXTT9=
EXTT10=
EXTT11=
EXTT12=
EXTT13=
EXTT14=
EXTT15=
PLAYORDER=
